HIERARCHY
ROOT hip
{
  OFFSET 0 0 0
  CHANNELS 6 Xposition Yposition Zposition Zrotation Yrotation Xrotation
  JOINT abdomen
  {
    OFFSET 0 20.6881 -0.73152
    CHANNELS 3 Zrotation Xrotation Yrotation
    JOINT chest
    {
      OFFSET 0 11.7043 -0.48768
      CHANNELS 3 Zrotation Xrotation Yrotation
      JOINT neck
      {
        OFFSET 0 22.1894 -2.19456
        CHANNELS 3 Zrotation Xrotation Yrotation
        JOINT head
        {
          OFFSET -0.24384 7.07133 1.2192
          CHANNELS 3 Zrotation Xrotation Yrotation
          JOINT leftEye
          {
            OFFSET 4.14528 8.04674 8.04672
            CHANNELS 3 Zrotation Xrotation Yrotation
            End Site
            {
              OFFSET 1 0 0
            }
          }
          JOINT rightEye
          {
            OFFSET -3.6576 8.04674 8.04672
            CHANNELS 3 Zrotation Xrotation Yrotation
            End Site
            {
              OFFSET 1 0 0
            }
          }
        }
      }
      JOINT rCollar
      {
        OFFSET -2.68224 19.2634 -4.8768
        CHANNELS 3 Zrotation Xrotation Yrotation
        JOINT rShldr
        {
          OFFSET -8.77824 -1.95073 1.46304
          CHANNELS 3 Zrotation Xrotation Yrotation
          JOINT rForeArm
          {
            OFFSET -28.1742 -1.7115 0.48768
            CHANNELS 3 Zrotation Xrotation Yrotation
            JOINT rHand
            {
              OFFSET -22.5879 0.773209 7.07136
              CHANNELS 3 Zrotation Xrotation Yrotation
              JOINT rThumb1
              {
                OFFSET -1.2192 -0.487915 3.41376
                CHANNELS 3 Zrotation Xrotation Yrotation
                JOINT rThumb2
                {
                  OFFSET -3.37035 -0.52449 3.41376
                  CHANNELS 3 Zrotation Xrotation Yrotation
                  End Site
                  {
                    OFFSET -1.78271 -1.18214 1.43049
                  }
                }
              }
              JOINT rIndex1
              {
                OFFSET -7.75947 0.938293 5.60832
                CHANNELS 3 Zrotation Xrotation Yrotation
                JOINT rIndex2
                {
                  OFFSET -2.54057 -0.884171 1.56538
                  CHANNELS 3 Zrotation Xrotation Yrotation
                  End Site
                  {
                    OFFSET -1.62519 -0.234802 1.16502
                  }
                }
              }
              JOINT rMid1
              {
                OFFSET -8.24714 1.18213 3.41376
                CHANNELS 3 Zrotation Xrotation Yrotation
                JOINT rMid2
                {
                  OFFSET -3.10165 -0.590103 1.0647
                  CHANNELS 3 Zrotation Xrotation Yrotation
                  End Site
                  {
                    OFFSET -2.48547 -0.328903 0.83742
                  }
                }
              }
              JOINT rRing1
              {
                OFFSET -8.82822 0.546677 1.51678
                CHANNELS 3 Zrotation Xrotation Yrotation
                JOINT rRing2
                {
                  OFFSET -2.60934 -0.819778 -0.0198488
                  CHANNELS 3 Zrotation Xrotation Yrotation
                  End Site
                  {
                    OFFSET -2.33842 -0.294052 0.168128
                  }
                }
              }
              JOINT rPinky1
              {
                OFFSET -8.27202 -0.0477905 -0.4584
                CHANNELS 3 Zrotation Xrotation Yrotation
                JOINT rPinky2
                {
                  OFFSET -1.82734 -0.647385 -0.700984
                  CHANNELS 3 Zrotation Xrotation Yrotation
                  End Site
                  {
                    OFFSET -1.69225 -0.51767 -0.607171
                  }
                }
              }
            }
          }
        }
      }
      JOINT lCollar
      {
        OFFSET 2.68224 19.2634 -4.8768
        CHANNELS 3 Zrotation Xrotation Yrotation
        JOINT lShldr
        {
          OFFSET 8.77824 -1.95073 1.46304
          CHANNELS 3 Zrotation Xrotation Yrotation
          JOINT lForeArm
          {
            OFFSET 28.1742 -1.7115 0.48768
            CHANNELS 3 Zrotation Xrotation Yrotation
            JOINT lHand
            {
              OFFSET 22.5879 0.773209 7.07136
              CHANNELS 3 Zrotation Xrotation Yrotation
              JOINT lThumb1
              {
                OFFSET 1.2192 -0.487915 3.41376
                CHANNELS 3 Zrotation Xrotation Yrotation
                JOINT lThumb2
                {
                  OFFSET 3.37035 -0.52449 3.41376
                  CHANNELS 3 Zrotation Xrotation Yrotation
                  End Site
                  {
                    OFFSET 1.78271 -1.18214 1.43049
                  }
                }
              }
              JOINT lIndex1
              {
                OFFSET 7.75947 0.938293 5.60832
                CHANNELS 3 Zrotation Xrotation Yrotation
                JOINT lIndex2
                {
                  OFFSET 2.54057 -0.884171 1.56538
                  CHANNELS 3 Zrotation Xrotation Yrotation
                  End Site
                  {
                    OFFSET 1.62519 -0.234802 1.16502
                  }
                }
              }
              JOINT lMid1
              {
                OFFSET 8.24714 1.18213 3.41376
                CHANNELS 3 Zrotation Xrotation Yrotation
                JOINT lMid2
                {
                  OFFSET 3.10165 -0.590103 1.0647
                  CHANNELS 3 Zrotation Xrotation Yrotation
                  End Site
                  {
                    OFFSET 2.48547 -0.328903 0.83742
                  }
                }
              }
              JOINT lRing1
              {
                OFFSET 8.82822 0.546677 1.51678
                CHANNELS 3 Zrotation Xrotation Yrotation
                JOINT lRing2
                {
                  OFFSET 2.60934 -0.819778 -0.0198488
                  CHANNELS 3 Zrotation Xrotation Yrotation
                  End Site
                  {
                    OFFSET 2.33842 -0.294052 0.168128
                  }
                }
              }
              JOINT lPinky1
              {
                OFFSET 8.27202 -0.0477905 -0.4584
                CHANNELS 3 Zrotation Xrotation Yrotation
                JOINT lPinky2
                {
                  OFFSET 1.82734 -0.647385 -0.700984
                  CHANNELS 3 Zrotation Xrotation Yrotation
                  End Site
                  {
                    OFFSET 1.69225 -0.51767 -0.607171
                  }
                }
              }
            }
          }
        }
      }
    }
  }
  JOINT rButtock
  {
    OFFSET -8.77824 4.35084 1.2192
    CHANNELS 3 Zrotation Xrotation Yrotation
    JOINT rThigh
    {
      OFFSET 0 -1.70687 -2.19456
      CHANNELS 3 Zrotation Xrotation Yrotation
      JOINT rShin
      {
        OFFSET 0 -36.8199 0.73152
        CHANNELS 3 Zrotation Xrotation Yrotation
        JOINT rFoot
        {
          OFFSET 0.73152 -45.1104 -5.12064
          CHANNELS 3 Zrotation Xrotation Yrotation
          End Site
          {
            OFFSET -1.1221 -3.69964 12.103
          }
        }
      }
    }
  }
  JOINT lButtock
  {
    OFFSET 8.77824 4.35084 1.2192
    CHANNELS 3 Zrotation Xrotation Yrotation
    JOINT lThigh
    {
      OFFSET 0 -1.70687 -2.19456
      CHANNELS 3 Zrotation Xrotation Yrotation
      JOINT lShin
      {
        OFFSET 0 -36.8199 0.73152
        CHANNELS 3 Zrotation Xrotation Yrotation
        JOINT lFoot
        {
          OFFSET -0.73152 -45.1104 -5.12064
          CHANNELS 3 Zrotation Xrotation Yrotation
          End Site
          {
            OFFSET 1.1221 -3.69964 12.103
          }
        }
      }
    }
  }
}
MOTION
Frames:	4
Frame Time:	0.03333
-0.00011999999696854502 49.88119888305664 0.1151999980211258 -20.16999989748001 -30.434800386428833 15.80239936709404 14.433999359607697 7.954770103096962 3.2871001213788986 2.7461599186062813 -7.688110247254372 1.0766200069338083 0.6158530013635755 12.736700177192688 7.394480109214783 5.189699940383434 -23.72619867324829 15.680200606584549 0.0 0.0 0.0 0.0 0.0 0.0 6.394884621840902e-13 0.0 0.0 105.00499606132507 46.643598675727844 -56.177698373794556 -27.114198803901672 -43.70219975709915 90.85560321807861 -4.114530086517334 -48.45940053462982 -9.127150252461433 -2.2605917138207587e-09 2.568185664131306e-09 -8.543565854779445e-10 -3.862830055822997e-09 4.218065896566259e-09 -1.56035184772918e-09 -2.2605917138207587e-09 2.568185664131306e-09 -8.543565854779445e-10 7.7309102565050125 5.474880114197731 0.41731400415301323 -2.2605917138207587e-09 2.568185664131306e-09 -8.543565854779445e-10 2.905540131032467 0.9651830233633518 0.102901995414868 -2.2605917138207587e-09 2.568185664131306e-09 -8.543565854779445e-10 10.27859978377819 0.7318009994924068 0.025912300043273717 -2.2605917138207587e-09 2.568185664131306e-09 -8.543565854779445e-10 2.221670038998127 -0.733487019315362 -0.2089200052432716 6.394884621840902e-13 0.0 0.0 -43.18600058555603 15.344499349594116 -39.110700488090515 12.524300068616867 -5.822930261492729 -22.62919932603836 2.514249924570322 40.29939919710159 -6.84504970908165 8.201439527510956e-10 -1.5416787846334046e-08 -4.517346496868413e-09 1.2725820397463394e-09 -2.626507011882495e-08 -7.814549007889582e-09 8.201439527510956e-10 -1.5416787846334046e-08 -4.517346496868413e-09 -7.7309102565050125 5.474880114197731 -0.41731400415301323 8.201439527510956e-10 -1.5416787846334046e-08 -4.517346496868413e-09 -2.905540131032467 0.9651830233633518 -0.102901995414868 8.201439527510956e-10 -1.5416787846334046e-08 -4.517346496868413e-09 -10.27859978377819 0.7318009994924068 -0.025912300043273717 8.201439527510956e-10 -1.5416787846334046e-08 -4.517346496868413e-09 -2.221670038998127 -0.733487019315362 0.2089200052432716 0.0 0.0 0.0 -13.094800561666489 12.084800004959106 -3.5130299627780914 0.0976431998424232 28.5547998547554 2.3727000318467617 -6.199159696698189 -16.751500368118286 -27.643599808216095 0.0 0.0 0.0 92.92430520057678 -49.194400906562805 79.28200006484985 7.265750169754028 81.8737006187439 -6.748429834842682 -2.6345000602304935 -1.601249948143959 -16.65510043501854
0.011830000192276202 49.79629898071289 0.2224999964237213 -20.145200192928314 -30.46219915151596 15.801299661397934 14.462000280618668 7.957829833030701 3.2081399112939835 2.7489100210368633 -7.711540013551712 1.055659968405962 0.5923719797283411 12.775800079107285 7.371570020914078 5.256199948489666 -23.68579924106598 15.645699352025986 0.0 0.0 0.0 0.0 0.0 0.0 6.394884621840902e-13 0.0 0.0 105.06799578666687 46.57480001449585 -56.12570106983185 -27.129801213741302 -43.658200800418854 90.76900005340576 -4.139790125191212 -48.5632985830307 -9.160860255360603 -3.835012307717989e-09 4.59664306617924e-09 -1.290487716687494e-09 -6.559552900853305e-09 7.581775207654573e-09 -2.3725021947029745e-09 -3.835012307717989e-09 4.59664306617924e-09 -1.290487716687494e-09 7.7309102565050125 5.474880114197731 0.41731400415301323 -3.835012307717989e-09 4.59664306617924e-09 -1.290487716687494e-09 2.905540131032467 0.9651830233633518 0.102901995414868 -3.835012307717989e-09 4.59664306617924e-09 -1.290487716687494e-09 10.27859978377819 0.7318009994924068 0.025912300043273717 -3.835012307717989e-09 4.59664306617924e-09 -1.290487716687494e-09 2.221670038998127 -0.733487019315362 -0.2089200052432716 6.394884621840902e-13 0.0 0.0 -43.283498883247375 15.176900178194046 -39.030199348926544 12.520700544118881 -5.820030122995377 -22.62200027704239 2.4885999597609043 40.135701298713684 -6.805310100317001 -1.461231136090646e-10 -2.146634869859554e-08 -7.5203843152849e-09 -4.863309754910006e-10 -3.63357344213e-08 -1.2958594197698403e-08 -1.461231136090646e-10 -2.146634869859554e-08 -7.5203843152849e-09 -7.7309102565050125 5.474880114197731 -0.41731400415301323 -1.461231136090646e-10 -2.146634869859554e-08 -7.5203843152849e-09 -2.905540131032467 0.9651830233633518 -0.102901995414868 -1.461231136090646e-10 -2.146634869859554e-08 -7.5203843152849e-09 -10.27859978377819 0.7318009994924068 -0.025912300043273717 -1.461231136090646e-10 -2.146634869859554e-08 -7.5203843152849e-09 -2.221670038998127 -0.733487019315362 0.2089200052432716 0.0 0.0 0.0 -13.196299374103546 12.139400392770767 -3.5979198664426804 0.09787090471945703 28.558699786663055 2.3788500018417835 -6.181369945406914 -16.86569944024086 -27.484099566936493 0.0 0.0 0.0 93.13400030136108 -49.152199029922485 79.49019849300385 7.549440041184425 82.13149845600128 -7.019750028848648 -2.6777600683271885 -1.7511400021612644 -16.661899834871292
0.022100000627688132 49.72090148925781 0.3187999948859215 -20.032300651073456 -30.556199848651886 15.771100670099258 14.326700270175934 7.945189923048019 3.23223989456892 2.7794699370861053 -7.708570137619972 1.0620800033211708 0.5538899917155504 12.700800150632858 7.372040078043938 5.365230068564415 -23.548400402069092 15.662900358438492 0.0 0.0 0.0 0.0 0.0 0.0 6.394884621840902e-13 0.0 0.0 105.26200532913208 46.466798186302185 -56.20380163192749 -27.14849889278412 -43.605101108551025 90.66489815711975 -4.166159927845001 -48.671300411224365 -9.196019992232323 -3.2872904398573155e-09 4.440607881406322e-09 -7.814549007889582e-10 -5.638369771077123e-09 7.402718438243028e-09 -1.4695444860990392e-09 -3.2872904398573155e-09 4.440607881406322e-09 -7.814549007889582e-10 7.7309102565050125 5.474880114197731 0.41731400415301323 -3.2872904398573155e-09 4.440607881406322e-09 -7.814549007889582e-10 2.905540131032467 0.9651830233633518 0.102901995414868 -3.2872904398573155e-09 4.440607881406322e-09 -7.814549007889582e-10 10.27859978377819 0.7318009994924068 0.025912300043273717 -3.2872904398573155e-09 4.440607881406322e-09 -7.814549007889582e-10 2.221670038998127 -0.733487019315362 -0.2089200052432716 6.394884621840902e-13 0.0 0.0 -43.252299427986145 15.12120008468628 -39.05779927968979 12.513100504875183 -5.8142901957035065 -22.60710060596466 2.4713600613176823 40.02480000257492 -6.778520196676254 3.5907277151636663e-10 -1.9443007204245077e-08 -6.332214752546861e-09 4.227018735036836e-10 -3.300016260254779e-08 -1.0927578841801733e-08 3.5907277151636663e-10 -1.9443007204245077e-08 -6.332214752546861e-09 -7.7309102565050125 5.474880114197731 -0.41731400415301323 3.5907277151636663e-10 -1.9443007204245077e-08 -6.332214752546861e-09 -2.905540131032467 0.9651830233633518 -0.102901995414868 3.5907277151636663e-10 -1.9443007204245077e-08 -6.332214752546861e-09 -10.27859978377819 0.7318009994924068 -0.025912300043273717 3.5907277151636663e-10 -1.9443007204245077e-08 -6.332214752546861e-09 -2.221670038998127 -0.733487019315362 0.2089200052432716 0.0 0.0 0.0 -13.402600139379501 12.14159980416298 -3.593520037829876 0.09941120515577495 28.57919991016388 2.3854599706828594 -6.181449741125107 -16.94160059094429 -27.412299513816833 0.0 0.0 0.0 93.17700147628784 -49.07689869403839 79.6601003408432 7.794099748134613 82.33929991722107 -7.252200320363045 -2.723939996212721 -1.9210599549114704 -16.631900668144226
0.022260000623646192 49.64939880371094 0.40689999610185623 -19.965800642967224 -30.64619868993759 15.781900584697723 14.190099388360977 7.912709712982178 3.2722001150250435 2.8127001598477364 -7.684760168194771 1.07209000736475 0.5239989934489131 12.624900341033936 7.384610250592232 5.449960045516491 -23.430699706077576 15.699900090694427 0.0 0.0 0.0 0.0 0.0 0.0 6.394884621840902e-13 0.0 0.0 105.49000382423401 46.39019966125488 -56.32719933986664 -27.16410130262375 -43.559900522232056 90.57639598846436 -4.1823698580265045 -48.73729884624481 -9.217590317130089 -1.957793926976592e-09 3.2460434340464417e-09 -8.057554623519536e-11 -3.376818824563088e-09 5.48936895938823e-09 -2.0463630789890885e-10 -1.957793926976592e-09 3.2460434340464417e-09 -8.057554623519536e-11 7.7309102565050125 5.474880114197731 0.41731400415301323 -1.957793926976592e-09 3.2460434340464417e-09 -8.057554623519536e-11 2.905540131032467 0.9651830233633518 0.102901995414868 -1.957793926976592e-09 3.2460434340464417e-09 -8.057554623519536e-11 10.27859978377819 0.7318009994924068 0.025912300043273717 -1.957793926976592e-09 3.2460434340464417e-09 -8.057554623519536e-11 2.221670038998127 -0.733487019315362 -0.2089200052432716 6.394884621840902e-13 0.0 0.0 -43.20010095834732 15.078200250864029 -39.104099571704865 12.501399368047714 -5.805699750781059 -22.584100663661957 2.46592003852129 39.98979985713959 -6.770069897174835 8.399680950788024e-10 -1.2894645351479994e-08 -3.615667765188846e-09 1.3374901186580246e-09 -2.2000961052981438e-08 -6.261871021706611e-09 8.399680950788024e-10 -1.2894645351479994e-08 -3.615667765188846e-09 -7.7309102565050125 5.474880114197731 -0.41731400415301323 8.399680950788024e-10 -1.2894645351479994e-08 -3.615667765188846e-09 -2.905540131032467 0.9651830233633518 -0.102901995414868 8.399680950788024e-10 -1.2894645351479994e-08 -3.615667765188846e-09 -10.27859978377819 0.7318009994924068 -0.025912300043273717 8.399680950788024e-10 -1.2894645351479994e-08 -3.615667765188846e-09 -2.221670038998127 -0.733487019315362 0.2089200052432716 0.0 0.0 0.0 -13.596999943256378 12.138599753379822 -3.5642899945378304 0.10122800362296402 28.583099842071533 2.3914099484682083 -6.185939759016037 -17.000900208950043 -27.372900545597076 0.0 0.0 0.0 93.22849988937378 -48.99250030517578 79.83380019664764 8.038540184497833 82.53600239753723 -7.4851300567388535 -2.7690899558365345 -2.0883500017225742 -16.60039946436882
